<svg xmlns="http://www.w3.org/2000/svg" xmlns:xlink="http://www.w3.org/1999/xlink" width="1210" height="889" version="1.1">
<style type="text/css">
.l0{
 fill: #ffffff;
  stroke: #000000;
  stroke-linecap:round;
  stroke-linejoin:round;
  stroke-width: 0.887947;
}
.l1{
 fill: #000000;
  stroke: #000000;
  stroke-linecap:round;
  stroke-linejoin:round;
  stroke-width: 0.887947;
}
.l2{
  fill: none;
  stroke: #000000;
  stroke-linecap:round;
  stroke-linejoin:round;
  stroke-width: 0.887947;
}
.l3{
 fill: #000000; fill-opacity: 0.5;
  stroke: #000000;
  stroke-linecap:round;
  stroke-linejoin:round;
  stroke-width: 0.887947;
}
.l4{
 fill: #000000;
  stroke: #000000;
  stroke-linecap:round;
  stroke-linejoin:round;
  stroke-width: 0.887947;
}
.l5{
 fill: #000000;
  stroke: #000000;
  stroke-linecap:round;
  stroke-linejoin:round;
  stroke-width: 0.887947;
}
.l6{
 fill: #000000; fill-opacity: 0.5;
  stroke: #000000;
  stroke-linecap:round;
  stroke-linejoin:round;
  stroke-width: 0.887947;
}
.l7{
 fill: #000000; fill-opacity: 0.5;
  stroke: #000000;
  stroke-linecap:round;
  stroke-linejoin:round;
  stroke-width: 0.887947;
}
.l8{
 fill: #000000; fill-opacity: 0.5;
  stroke: #000000;
  stroke-linecap:round;
  stroke-linejoin:round;
  stroke-width: 0.887947;
}
.l9{
 fill: #000000; fill-opacity: 0.5;
  stroke: #000000;
  stroke-linecap:round;
  stroke-linejoin:round;
  stroke-width: 0.887947;
}
.l10{
 fill: #000000;
  stroke: #000000;
  stroke-linecap:round;
  stroke-linejoin:round;
  stroke-width: 0.887947;
}
.l11{
 fill: #000000; fill-opacity: 0.5;
  stroke: #000000;
  stroke-linecap:round;
  stroke-linejoin:round;
  stroke-width: 0.887947;
}
.l12{
 fill: #000000; fill-opacity: 0.5;
  stroke: #000000;
  stroke-linecap:round;
  stroke-linejoin:round;
  stroke-width: 0.887947;
}
.l13{
 fill: #000000; fill-opacity: 0.5;
  stroke: #000000;
  stroke-linecap:round;
  stroke-linejoin:round;
  stroke-width: 0.887947;
}
.l14{
  fill: none;
  stroke: #000000;
  stroke-linecap:round;
  stroke-linejoin:round;
  stroke-width: 0.887947;
}
.l15{
 fill: #000000; fill-opacity: 0.5;
  stroke: #000000;
  stroke-linecap:round;
  stroke-linejoin:round;
  stroke-width: 0.887947;
}
.l16{
 fill: #000000; fill-opacity: 0.5;
  stroke: #000000;
  stroke-linecap:round;
  stroke-linejoin:round;
  stroke-width: 0.887947;
}
.l17{
  fill: none;
  stroke: #000000;
  stroke-linecap:round;
  stroke-linejoin:round;
  stroke-width: 0.887947;
}
.l18{
 fill: #000000; fill-opacity: 0.5;
  stroke: #000000;
  stroke-linecap:round;
  stroke-linejoin:round;
  stroke-width: 0.887947;
}
.l19{
  fill: none;
  stroke: #000000;
  stroke-linecap:round;
  stroke-linejoin:round;
  stroke-width: 0.887947;
}
.l20{
  fill: none;
  stroke: #000000;
  stroke-linecap:round;
  stroke-linejoin:round;
  stroke-width: 0.887947;
}
.l21{
  fill: none;
  stroke: #000000;
  stroke-linecap:round;
  stroke-linejoin:round;
  stroke-width: 0.887947;
}
text {font-family: Sans-Serif;}
</style>
<rect class="l0" x="0" y="0" width="1210" height="889"/>
<text fill="#000000"  xml:space="preserve" font-size="14.1085" transform="translate(18.3909, 499.771)" >IN_P</text>
<text fill="#000000"  xml:space="preserve" font-size="14.1085" transform="translate(15.3909, 516.214)" >IN_M</text>
<text fill="#000000"  xml:space="preserve" font-size="14.1085" transform="translate(19.3909, 351.779)" >VCC</text>
<text fill="#000000"  xml:space="preserve" font-size="14.1085" transform="translate(21.3909, 376.445)" >VSS</text>
<text fill="#000000"  xml:space="preserve" font-size="14.1085" transform="translate(654.716, 505.684)" >IN_P</text>
<text fill="#000000"  xml:space="preserve" font-size="14.1085" transform="translate(345.288, 505.684)" >IN_M</text>
<text fill="#000000"  xml:space="preserve" font-size="14.1085" transform="translate(482.836, 714.05)" >VSS</text>
<text fill="#000000"  xml:space="preserve" font-size="14.1085" transform="translate(480.836, 220.746)" >VCC</text>
<text fill="#000000"  xml:space="preserve" font-size="14.1085" transform="translate(31.9197, 565.545)" >OUT</text>
<text fill="#000000"  xml:space="preserve" font-size="14.1085" transform="translate(802.707, 508.506)" >OUT</text>
<text fill="#000000"  xml:space="preserve" font-size="14.1085" transform="translate(391.618, 418.067)" >VB_A</text>
<text fill="#000000"  xml:space="preserve" font-size="14.1085" transform="translate(358.731, 549.615)" >VB_B</text>
<text fill="#000000"  xml:space="preserve" font-size="14.1085" transform="translate(144.933, 349.886) rotate(270)" >IB</text>
<text fill="#000000"  xml:space="preserve" font-size="14.1085" transform="translate(12.3909, 433.997)" >VB_A</text>
<text fill="#000000"  xml:space="preserve" font-size="14.1085" transform="translate(12.3909, 450.44)" >VB_B</text>
<text fill="#000000"  xml:space="preserve" font-size="14.1085" transform="translate(35.3909, 417.553)" >IB</text>
<text fill="#000000"  xml:space="preserve" font-size="14.1085" transform="translate(276.516, 398.802)" >m1m2</text>
<text fill="#000000"  xml:space="preserve" font-size="14.1085" transform="translate(388.763, 348.218) rotate(270)" >bias1</text>
<text fill="#000000"  xml:space="preserve" font-size="14.1085" transform="translate(372.319, 644.201) rotate(270)" >bias3</text>
<text fill="#000000"  xml:space="preserve" font-size="14.1085" transform="translate(668.302, 644.201) rotate(270)" >bias21</text>
<text fill="#000000"  xml:space="preserve" font-size="14.1085" transform="translate(276.516, 612.567)" >m3m4</text>
<text fill="#000000"  xml:space="preserve" font-size="14.1085" transform="translate(523.168, 341.249)" >m100m5</text>
<text fill="#000000"  xml:space="preserve" font-size="14.1085" transform="translate(702.488, 401.624)" >m9m10</text>
<text fill="#000000"  xml:space="preserve" font-size="14.1085" transform="translate(693.488, 615.389)" >m11m12</text>
<text fill="#000000"  xml:space="preserve" font-size="8.55061" transform="translate(739.322, 337.483)" >M9</text>
<text fill="#000000"  xml:space="preserve" font-size="6.41295" transform="translate(765.71, 374.596)" >D</text>
<text fill="#000000"  xml:space="preserve" font-size="6.41295" transform="translate(765.71, 338.464)" >S</text>
<text fill="#000000"  xml:space="preserve" font-size="6.41295" transform="translate(763.654, 351.986)" >B</text>
<text fill="#000000"  xml:space="preserve" font-size="6.41295" transform="translate(733.989, 351.986)" >G</text>
<text fill="#000000"  xml:space="preserve" font-size="8.55061" transform="translate(771.876, 345.147)" >pfet_01v8</text>
<text fill="#000000"  xml:space="preserve" font-size="25" transform="translate(772.904, 373.454)" >500 x 5 / 15</text>
<text fill="#000000"  xml:space="preserve" font-size="25" transform="translate(772.904, 363.176)" >nf=1</text>
<text fill="#000000"  xml:space="preserve" font-size="8.55061" transform="translate(282.683, 337.483)" >M1</text>
<text fill="#000000"  xml:space="preserve" font-size="6.41295" transform="translate(263.295, 374.596)" >D</text>
<text fill="#000000"  xml:space="preserve" font-size="6.41295" transform="translate(264.295, 338.464)" >S</text>
<text fill="#000000"  xml:space="preserve" font-size="6.41295" transform="translate(266.35, 351.986)" >B</text>
<text fill="#000000"  xml:space="preserve" font-size="6.41295" transform="translate(295.015, 351.986)" >G</text>
<text fill="#000000"  xml:space="preserve" font-size="8.55061" transform="translate(222.128, 345.147)" >pfet_01v8</text>
<text fill="#000000"  xml:space="preserve" font-size="8.55061" transform="translate(211.101, 373.454)" >500 x 5 / 15</text>
<text fill="#000000"  xml:space="preserve" font-size="8.55061" transform="translate(241.101, 363.176)" >nf=1</text>
<text fill="#000000"  xml:space="preserve" font-size="8.55061" transform="translate(482.669, 255.266)" >M100</text>
<text fill="#000000"  xml:space="preserve" font-size="6.41295" transform="translate(519.058, 292.378)" >D</text>
<text fill="#000000"  xml:space="preserve" font-size="6.41295" transform="translate(519.058, 256.247)" >S</text>
<text fill="#000000"  xml:space="preserve" font-size="6.41295" transform="translate(517.002, 269.769)" >B</text>
<text fill="#000000"  xml:space="preserve" font-size="6.41295" transform="translate(487.337, 269.769)" >G</text>
<text fill="#000000"  xml:space="preserve" font-size="8.55061" transform="translate(525.224, 262.93)" >pfet_01v8</text>
<text fill="#000000"  xml:space="preserve" font-size="8.55061" transform="translate(526.252, 291.236)" >6 x 5 / 3</text>
<text fill="#000000"  xml:space="preserve" font-size="8.55061" transform="translate(526.252, 280.959)" >nf=1</text>
<text fill="#000000"  xml:space="preserve" font-size="8.55061" transform="translate(151.135, 255.266)" >M20</text>
<text fill="#000000"  xml:space="preserve" font-size="6.41295" transform="translate(131.747, 292.378)" >D</text>
<text fill="#000000"  xml:space="preserve" font-size="6.41295" transform="translate(132.747, 256.247)" >S</text>
<text fill="#000000"  xml:space="preserve" font-size="6.41295" transform="translate(134.802, 269.769)" >B</text>
<text fill="#000000"  xml:space="preserve" font-size="6.41295" transform="translate(163.467, 269.769)" >G</text>
<text fill="#000000"  xml:space="preserve" font-size="8.55061" transform="translate(90.5805, 262.93)" >pfet_01v8</text>
<text fill="#000000"  xml:space="preserve" font-size="8.55061" transform="translate(94.5528, 291.236)" >4 x 5 / 3</text>
<text fill="#000000"  xml:space="preserve" font-size="8.55061" transform="translate(109.553, 280.959)" >nf=1</text>
<text fill="#000000"  xml:space="preserve" font-size="8.55061" transform="translate(734.322, 419.701)" >M10</text>
<text fill="#000000"  xml:space="preserve" font-size="6.41295" transform="translate(765.71, 456.813)" >D</text>
<text fill="#000000"  xml:space="preserve" font-size="6.41295" transform="translate(765.71, 420.681)" >S</text>
<text fill="#000000"  xml:space="preserve" font-size="6.41295" transform="translate(763.654, 434.203)" >B</text>
<text fill="#000000"  xml:space="preserve" font-size="6.41295" transform="translate(733.989, 434.203)" >G</text>
<text fill="#000000"  xml:space="preserve" font-size="8.55061" transform="translate(771.876, 427.364)" >pfet_01v8</text>
<text fill="#000000"  xml:space="preserve" font-size="8.55061" transform="translate(772.904, 455.671)" >30 x 5 / 5</text>
<text fill="#000000"  xml:space="preserve" font-size="8.55061" transform="translate(772.904, 445.394)" >nf=1</text>
<text fill="#000000"  xml:space="preserve" font-size="8.55061" transform="translate(282.683, 419.701)" >M2</text>
<text fill="#000000"  xml:space="preserve" font-size="6.41295" transform="translate(263.295, 456.813)" >D</text>
<text fill="#000000"  xml:space="preserve" font-size="6.41295" transform="translate(264.295, 420.681)" >S</text>
<text fill="#000000"  xml:space="preserve" font-size="6.41295" transform="translate(266.35, 434.203)" >B</text>
<text fill="#000000"  xml:space="preserve" font-size="6.41295" transform="translate(295.015, 434.203)" >G</text>
<text fill="#000000"  xml:space="preserve" font-size="8.55061" transform="translate(222.128, 427.364)" >pfet_01v8</text>
<text fill="#000000"  xml:space="preserve" font-size="8.55061" transform="translate(221.101, 455.671)" >30 x 5 / 5</text>
<text fill="#000000"  xml:space="preserve" font-size="8.55061" transform="translate(241.101, 445.394)" >nf=1</text>
<text fill="#000000"  xml:space="preserve" font-size="8.55061" transform="translate(426.896, 485.475)" >M5</text>
<text fill="#000000"  xml:space="preserve" font-size="6.41295" transform="translate(453.284, 522.587)" >D</text>
<text fill="#000000"  xml:space="preserve" font-size="6.41295" transform="translate(453.284, 486.455)" >S</text>
<text fill="#000000"  xml:space="preserve" font-size="6.41295" transform="translate(451.228, 499.977)" >B</text>
<text fill="#000000"  xml:space="preserve" font-size="6.41295" transform="translate(421.563, 499.977)" >G</text>
<text fill="#000000"  xml:space="preserve" font-size="8.55061" transform="translate(459.45, 493.138)" >pfet_01v8</text>
<text fill="#000000"  xml:space="preserve" font-size="8.55061" transform="translate(460.478, 521.445)" >30 x 5 / 0.18</text>
<text fill="#000000"  xml:space="preserve" font-size="8.55061" transform="translate(460.478, 511.168)" >nf=1</text>
<text fill="#000000"  xml:space="preserve" font-size="8.55061" transform="translate(595.109, 485.475)" >M7</text>
<text fill="#000000"  xml:space="preserve" font-size="6.41295" transform="translate(575.721, 522.587)" >D</text>
<text fill="#000000"  xml:space="preserve" font-size="6.41295" transform="translate(576.721, 486.455)" >S</text>
<text fill="#000000"  xml:space="preserve" font-size="6.41295" transform="translate(578.776, 499.977)" >B</text>
<text fill="#000000"  xml:space="preserve" font-size="6.41295" transform="translate(607.441, 499.977)" >G</text>
<text fill="#000000"  xml:space="preserve" font-size="8.55061" transform="translate(534.554, 493.138)" >pfet_01v8</text>
<text fill="#000000"  xml:space="preserve" font-size="8.55061" transform="translate(520.527, 521.445)" >30 x 5 / 0.18</text>
<text fill="#000000"  xml:space="preserve" font-size="8.55061" transform="translate(553.527, 511.168)" >nf=1</text>
<text fill="#000000"  xml:space="preserve" font-size="8.55061" transform="translate(426.896, 633.466)" >M6</text>
<text fill="#000000"  xml:space="preserve" font-size="6.41295" transform="translate(453.284, 670.578)" >S</text>
<text fill="#000000"  xml:space="preserve" font-size="6.41295" transform="translate(453.284, 634.446)" >D</text>
<text fill="#000000"  xml:space="preserve" font-size="6.41295" transform="translate(451.228, 647.968)" >B</text>
<text fill="#000000"  xml:space="preserve" font-size="6.41295" transform="translate(421.563, 647.968)" >G</text>
<text fill="#000000"  xml:space="preserve" font-size="8.55061" transform="translate(459.45, 641.13)" >nfet_01v8</text>
<text fill="#000000"  xml:space="preserve" font-size="8.55061" transform="translate(460.478, 669.436)" >1 x 5 / 1</text>
<text fill="#000000"  xml:space="preserve" font-size="8.55061" transform="translate(460.478, 659.159)" >nf=1</text>
<text fill="#000000"  xml:space="preserve" font-size="8.55061" transform="translate(595.109, 633.466)" >M8</text>
<text fill="#000000"  xml:space="preserve" font-size="6.41295" transform="translate(576.721, 670.578)" >S</text>
<text fill="#000000"  xml:space="preserve" font-size="6.41295" transform="translate(575.721, 634.446)" >D</text>
<text fill="#000000"  xml:space="preserve" font-size="6.41295" transform="translate(578.776, 647.968)" >B</text>
<text fill="#000000"  xml:space="preserve" font-size="6.41295" transform="translate(607.441, 647.968)" >G</text>
<text fill="#000000"  xml:space="preserve" font-size="8.55061" transform="translate(534.554, 641.13)" >nfet_01v8</text>
<text fill="#000000"  xml:space="preserve" font-size="8.55061" transform="translate(538.527, 669.436)" >1 x 5 / 1</text>
<text fill="#000000"  xml:space="preserve" font-size="8.55061" transform="translate(553.527, 659.159)" >nf=1</text>
<text fill="#000000"  xml:space="preserve" font-size="8.55061" transform="translate(734.322, 633.466)" >M12</text>
<text fill="#000000"  xml:space="preserve" font-size="6.41295" transform="translate(765.71, 670.578)" >S</text>
<text fill="#000000"  xml:space="preserve" font-size="6.41295" transform="translate(765.71, 634.446)" >D</text>
<text fill="#000000"  xml:space="preserve" font-size="6.41295" transform="translate(763.654, 647.968)" >B</text>
<text fill="#000000"  xml:space="preserve" font-size="6.41295" transform="translate(733.989, 647.968)" >G</text>
<text fill="#000000"  xml:space="preserve" font-size="8.55061" transform="translate(771.876, 641.13)" >nfet_01v8</text>
<text fill="#000000"  xml:space="preserve" font-size="8.55061" transform="translate(772.904, 669.436)" >1 x 5 / 1</text>
<text fill="#000000"  xml:space="preserve" font-size="8.55061" transform="translate(772.904, 659.159)" >nf=1</text>
<text fill="#000000"  xml:space="preserve" font-size="8.55061" transform="translate(282.683, 633.466)" >M4</text>
<text fill="#000000"  xml:space="preserve" font-size="6.41295" transform="translate(264.295, 670.578)" >S</text>
<text fill="#000000"  xml:space="preserve" font-size="6.41295" transform="translate(263.295, 634.446)" >D</text>
<text fill="#000000"  xml:space="preserve" font-size="6.41295" transform="translate(266.35, 647.968)" >B</text>
<text fill="#000000"  xml:space="preserve" font-size="6.41295" transform="translate(295.015, 647.968)" >G</text>
<text fill="#000000"  xml:space="preserve" font-size="8.55061" transform="translate(222.128, 641.13)" >nfet_01v8</text>
<text fill="#000000"  xml:space="preserve" font-size="8.55061" transform="translate(226.101, 669.436)" >1 x 5 / 1</text>
<text fill="#000000"  xml:space="preserve" font-size="8.55061" transform="translate(241.101, 659.159)" >nf=1</text>
<text fill="#000000"  xml:space="preserve" font-size="8.55061" transform="translate(734.322, 551.249)" >M11</text>
<text fill="#000000"  xml:space="preserve" font-size="6.41295" transform="translate(765.71, 588.361)" >S</text>
<text fill="#000000"  xml:space="preserve" font-size="6.41295" transform="translate(765.71, 552.229)" >D</text>
<text fill="#000000"  xml:space="preserve" font-size="6.41295" transform="translate(763.654, 565.751)" >B</text>
<text fill="#000000"  xml:space="preserve" font-size="6.41295" transform="translate(733.989, 565.751)" >G</text>
<text fill="#000000"  xml:space="preserve" font-size="8.55061" transform="translate(771.876, 558.912)" >nfet_01v8</text>
<text fill="#000000"  xml:space="preserve" font-size="8.55061" transform="translate(772.904, 587.219)" >30 x 5 / 5</text>
<text fill="#000000"  xml:space="preserve" font-size="8.55061" transform="translate(772.904, 576.941)" >nf=1</text>
<text fill="#000000"  xml:space="preserve" font-size="8.55061" transform="translate(282.683, 551.249)" >M3</text>
<text fill="#000000"  xml:space="preserve" font-size="6.41295" transform="translate(264.295, 588.361)" >S</text>
<text fill="#000000"  xml:space="preserve" font-size="6.41295" transform="translate(263.295, 552.229)" >D</text>
<text fill="#000000"  xml:space="preserve" font-size="6.41295" transform="translate(266.35, 565.751)" >B</text>
<text fill="#000000"  xml:space="preserve" font-size="6.41295" transform="translate(295.015, 565.751)" >G</text>
<text fill="#000000"  xml:space="preserve" font-size="8.55061" transform="translate(222.128, 558.912)" >nfet_01v8</text>
<text fill="#000000"  xml:space="preserve" font-size="8.55061" transform="translate(221.101, 587.219)" >30 x 5 / 5</text>
<text fill="#000000"  xml:space="preserve" font-size="8.55061" transform="translate(241.101, 576.941)" >nf=1</text>
<path class="l4" d="M753.377 335.886L753.377 372.884"/>
<path class="l4" d="M763.654 329.719L763.654 339.997"/>
<path class="l4" d="M763.654 368.773L763.654 379.05"/>
<path class="l4" d="M749.266 342.052L749.266 366.717"/>
<path class="l4" d="M753.377 368.773L763.654 368.773"/>
<path class="l4" d="M757.488 339.997L763.654 339.997"/>
<path class="l4" d="M730.767 354.385L741.044 354.385"/>
<path class="l4" d="M757.488 337.941L753.377 339.997L757.488 342.052L757.488 337.941"/>
<circle class="l4" cx="745.155" cy="354.385" r="4.11087" style="fill:none;"/>
<path class="l4" d="M280.627 335.886L280.627 372.884"/>
<path class="l4" d="M270.35 329.719L270.35 339.997"/>
<path class="l4" d="M270.35 368.773L270.35 379.05"/>
<path class="l4" d="M284.738 342.052L284.738 366.717"/>
<path class="l4" d="M270.35 368.773L280.627 368.773"/>
<path class="l4" d="M270.35 339.997L276.516 339.997"/>
<path class="l4" d="M292.96 354.385L303.237 354.385"/>
<path class="l4" d="M276.516 337.941L280.627 339.997L276.516 342.052L276.516 337.941"/>
<circle class="l4" cx="288.849" cy="354.385" r="4.11087" style="fill:none;"/>
<path class="l4" d="M506.725 253.668L506.725 290.666"/>
<path class="l4" d="M517.002 247.502L517.002 257.779"/>
<path class="l4" d="M517.002 286.555L517.002 296.833"/>
<path class="l4" d="M502.614 259.835L502.614 284.5"/>
<path class="l4" d="M506.725 286.555L517.002 286.555"/>
<path class="l4" d="M510.836 257.779L517.002 257.779"/>
<path class="l4" d="M484.115 272.167L494.392 272.167"/>
<path class="l4" d="M510.836 255.724L506.725 257.779L510.836 259.835L510.836 255.724"/>
<circle class="l4" cx="498.503" cy="272.167" r="4.11087" style="fill:none;"/>
<path class="l4" d="M149.079 253.668L149.079 290.666"/>
<path class="l4" d="M138.802 247.502L138.802 257.779"/>
<path class="l4" d="M138.802 286.555L138.802 296.833"/>
<path class="l4" d="M153.19 259.835L153.19 284.5"/>
<path class="l4" d="M138.802 286.555L149.079 286.555"/>
<path class="l4" d="M138.802 257.779L144.969 257.779"/>
<path class="l4" d="M161.412 272.167L171.689 272.167"/>
<path class="l4" d="M144.969 255.724L149.079 257.779L144.969 259.835L144.969 255.724"/>
<circle class="l4" cx="157.301" cy="272.167" r="4.11087" style="fill:none;"/>
<path class="l4" d="M753.377 418.103L753.377 455.101"/>
<path class="l4" d="M763.654 411.937L763.654 422.214"/>
<path class="l4" d="M763.654 450.99L763.654 461.267"/>
<path class="l4" d="M749.266 424.269L749.266 448.935"/>
<path class="l4" d="M753.377 450.99L763.654 450.99"/>
<path class="l4" d="M757.488 422.214L763.654 422.214"/>
<path class="l4" d="M730.767 436.602L741.044 436.602"/>
<path class="l4" d="M757.488 420.159L753.377 422.214L757.488 424.269L757.488 420.159"/>
<circle class="l4" cx="745.155" cy="436.602" r="4.11087" style="fill:none;"/>
<path class="l4" d="M280.627 418.103L280.627 455.101"/>
<path class="l4" d="M270.35 411.937L270.35 422.214"/>
<path class="l4" d="M270.35 450.99L270.35 461.267"/>
<path class="l4" d="M284.738 424.269L284.738 448.935"/>
<path class="l4" d="M270.35 450.99L280.627 450.99"/>
<path class="l4" d="M270.35 422.214L276.516 422.214"/>
<path class="l4" d="M292.96 436.602L303.237 436.602"/>
<path class="l4" d="M276.516 420.159L280.627 422.214L276.516 424.269L276.516 420.159"/>
<circle class="l4" cx="288.849" cy="436.602" r="4.11087" style="fill:none;"/>
<path class="l4" d="M440.951 483.877L440.951 520.875"/>
<path class="l4" d="M451.228 477.711L451.228 487.988"/>
<path class="l4" d="M451.228 516.764L451.228 527.041"/>
<path class="l4" d="M436.84 490.043L436.84 514.709"/>
<path class="l4" d="M440.951 516.764L451.228 516.764"/>
<path class="l4" d="M445.062 487.988L451.228 487.988"/>
<path class="l4" d="M418.341 502.376L428.618 502.376"/>
<path class="l4" d="M445.062 485.932L440.951 487.988L445.062 490.043L445.062 485.932"/>
<circle class="l4" cx="432.729" cy="502.376" r="4.11087" style="fill:none;"/>
<path class="l4" d="M593.053 483.877L593.053 520.875"/>
<path class="l4" d="M582.776 477.711L582.776 487.988"/>
<path class="l4" d="M582.776 516.764L582.776 527.041"/>
<path class="l4" d="M597.164 490.043L597.164 514.709"/>
<path class="l4" d="M582.776 516.764L593.053 516.764"/>
<path class="l4" d="M582.776 487.988L588.942 487.988"/>
<path class="l4" d="M605.386 502.376L615.663 502.376"/>
<path class="l4" d="M588.942 485.932L593.053 487.988L588.942 490.043L588.942 485.932"/>
<circle class="l4" cx="601.275" cy="502.376" r="4.11087" style="fill:none;"/>
<path class="l4" d="M440.951 631.868L440.951 668.866"/>
<path class="l4" d="M418.341 650.367L436.84 650.367"/>
<path class="l4" d="M451.228 625.702L451.228 635.979"/>
<path class="l4" d="M451.228 664.755L451.228 675.032"/>
<path class="l4" d="M436.84 638.035L436.84 662.7"/>
<path class="l4" d="M440.951 635.979L451.228 635.979"/>
<path class="l4" d="M440.951 664.755L447.117 664.755"/>
<path class="l4" d="M447.117 662.7L451.228 664.755L447.117 666.811L447.117 662.7"/>
<path class="l4" d="M593.053 631.868L593.053 668.866"/>
<path class="l4" d="M597.164 650.367L615.663 650.367"/>
<path class="l4" d="M582.776 625.702L582.776 635.979"/>
<path class="l4" d="M582.776 664.755L582.776 675.032"/>
<path class="l4" d="M597.164 638.035L597.164 662.7"/>
<path class="l4" d="M582.776 635.979L593.053 635.979"/>
<path class="l4" d="M586.887 664.755L593.053 664.755"/>
<path class="l4" d="M586.887 662.7L582.776 664.755L586.887 666.811L586.887 662.7"/>
<path class="l4" d="M753.377 631.868L753.377 668.866"/>
<path class="l4" d="M730.767 650.367L749.266 650.367"/>
<path class="l4" d="M763.654 625.702L763.654 635.979"/>
<path class="l4" d="M763.654 664.755L763.654 675.032"/>
<path class="l4" d="M749.266 638.035L749.266 662.7"/>
<path class="l4" d="M753.377 635.979L763.654 635.979"/>
<path class="l4" d="M753.377 664.755L759.543 664.755"/>
<path class="l4" d="M759.543 662.7L763.654 664.755L759.543 666.811L759.543 662.7"/>
<path class="l4" d="M280.627 631.868L280.627 668.866"/>
<path class="l4" d="M284.738 650.367L303.237 650.367"/>
<path class="l4" d="M270.35 625.702L270.35 635.979"/>
<path class="l4" d="M270.35 664.755L270.35 675.032"/>
<path class="l4" d="M284.738 638.035L284.738 662.7"/>
<path class="l4" d="M270.35 635.979L280.627 635.979"/>
<path class="l4" d="M274.461 664.755L280.627 664.755"/>
<path class="l4" d="M274.461 662.7L270.35 664.755L274.461 666.811L274.461 662.7"/>
<path class="l4" d="M753.377 549.651L753.377 586.649"/>
<path class="l4" d="M730.767 568.15L749.266 568.15"/>
<path class="l4" d="M763.654 543.485L763.654 553.762"/>
<path class="l4" d="M763.654 582.538L763.654 592.815"/>
<path class="l4" d="M749.266 555.817L749.266 580.482"/>
<path class="l4" d="M753.377 553.762L763.654 553.762"/>
<path class="l4" d="M753.377 582.538L759.543 582.538"/>
<path class="l4" d="M759.543 580.482L763.654 582.538L759.543 584.593L759.543 580.482"/>
<path class="l4" d="M280.627 549.651L280.627 586.649"/>
<path class="l4" d="M284.738 568.15L303.237 568.15"/>
<path class="l4" d="M270.35 543.485L270.35 553.762"/>
<path class="l4" d="M270.35 582.538L270.35 592.815"/>
<path class="l4" d="M284.738 555.817L284.738 580.482"/>
<path class="l4" d="M270.35 553.762L280.627 553.762"/>
<path class="l4" d="M274.461 582.538L280.627 582.538"/>
<path class="l4" d="M274.461 580.482L270.35 582.538L274.461 584.593L274.461 580.482"/>
<path class="l5" d="M759.543 352.329L763.654 354.385L759.543 356.44L759.543 352.329"/>
<path class="l5" d="M761.599 376.994L765.71 376.994L765.71 381.105L761.599 381.105L761.599 376.994z"/>
<path class="l5" d="M728.712 352.329L732.823 352.329L732.823 356.44L728.712 356.44L728.712 352.329z"/>
<path class="l5" d="M761.599 327.664L765.71 327.664L765.71 331.775L761.599 331.775L761.599 327.664z"/>
<path class="l5" d="M763.59 354.32L763.718 354.32L763.718 354.449L763.59 354.449L763.59 354.32z"/>
<path class="l5" d="M274.461 352.329L270.35 354.385L274.461 356.44L274.461 352.329"/>
<path class="l5" d="M268.295 376.994L272.405 376.994L272.405 381.105L268.295 381.105L268.295 376.994z"/>
<path class="l5" d="M301.182 352.329L305.292 352.329L305.292 356.44L301.182 356.44L301.182 352.329z"/>
<path class="l5" d="M268.295 327.664L272.405 327.664L272.405 331.775L268.295 331.775L268.295 327.664z"/>
<path class="l5" d="M270.286 354.32L270.414 354.32L270.414 354.449L270.286 354.449L270.286 354.32z"/>
<path class="l5" d="M512.891 270.112L517.002 272.167L512.891 274.223L512.891 270.112"/>
<path class="l5" d="M514.947 294.777L519.058 294.777L519.058 298.888L514.947 298.888L514.947 294.777z"/>
<path class="l5" d="M482.06 270.112L486.171 270.112L486.171 274.223L482.06 274.223L482.06 270.112z"/>
<path class="l5" d="M514.947 245.447L519.058 245.447L519.058 249.558L514.947 249.558L514.947 245.447z"/>
<path class="l5" d="M516.938 272.103L517.066 272.103L517.066 272.232L516.938 272.232L516.938 272.103z"/>
<path class="l5" d="M142.913 270.112L138.802 272.167L142.913 274.223L142.913 270.112"/>
<path class="l5" d="M136.747 294.777L140.858 294.777L140.858 298.888L136.747 298.888L136.747 294.777z"/>
<path class="l5" d="M169.634 270.112L173.745 270.112L173.745 274.223L169.634 274.223L169.634 270.112z"/>
<path class="l5" d="M136.747 245.447L140.858 245.447L140.858 249.558L136.747 249.558L136.747 245.447z"/>
<path class="l5" d="M138.738 272.103L138.866 272.103L138.866 272.232L138.738 272.232L138.738 272.103z"/>
<path class="l5" d="M60.6958 494.154L64.8066 494.154"/>
<path class="l5" d="M60.6958 494.154L57.6126 490.043L50.4186 490.043L53.5017 494.154L50.4186 498.265L57.6126 498.265L60.6958 494.154"/>
<path class="l5" d="M63.7789 493.126L65.8344 493.126L65.8344 495.182L63.7789 495.182L63.7789 493.126z"/>
<path class="l5" d="M60.6958 510.598L64.8066 510.598"/>
<path class="l5" d="M60.6958 510.598L57.6126 506.487L50.4186 506.487L53.5017 510.598L50.4186 514.709L57.6126 514.709L60.6958 510.598"/>
<path class="l5" d="M63.7789 509.57L65.8344 509.57L65.8344 511.625L63.7789 511.625L63.7789 509.57z"/>
<path class="l5" d="M60.6958 346.163L64.8066 346.163"/>
<path class="l5" d="M60.6958 346.163L57.6126 342.052L50.4186 342.052L53.5017 346.163L50.4186 350.274L57.6126 350.274L60.6958 346.163"/>
<path class="l5" d="M63.7789 345.135L65.8344 345.135L65.8344 347.191L63.7789 347.191L63.7789 345.135z"/>
<path class="l5" d="M60.6958 370.828L64.8066 370.828"/>
<path class="l5" d="M60.6958 370.828L57.6126 366.717L50.4186 366.717L53.5017 370.828L50.4186 374.939L57.6126 374.939L60.6958 370.828"/>
<path class="l5" d="M63.7789 369.8L65.8344 369.8L65.8344 371.856L63.7789 371.856L63.7789 369.8z"/>
<path class="l5" d="M647.522 501.348L649.578 501.348L649.578 503.404L647.522 503.404L647.522 501.348z"/>
<path class="l5" d="M384.427 501.348L386.482 501.348L386.482 503.404L384.427 503.404L384.427 501.348z"/>
<path class="l5" d="M515.974 706.892L518.03 706.892L518.03 708.947L515.974 708.947L515.974 706.892z"/>
<path class="l5" d="M515.974 213.587L518.03 213.587L518.03 215.643L515.974 215.643L515.974 213.587z"/>
<path class="l5" d="M15.4762 559.928L22.6702 559.928"/>
<path class="l5" d="M29.8643 559.928L26.7811 555.817L19.5871 555.817L22.6702 559.928L19.5871 564.039L26.7811 564.039L29.8643 559.928"/>
<path class="l5" d="M14.4485 558.9L16.5039 558.9L16.5039 560.956L14.4485 560.956L14.4485 558.9z"/>
<path class="l5" d="M795.513 501.348L797.569 501.348L797.569 503.404L795.513 503.404L795.513 501.348z"/>
<path class="l5" d="M759.543 434.547L763.654 436.602L759.543 438.657L759.543 434.547"/>
<path class="l5" d="M761.599 459.212L765.71 459.212L765.71 463.323L761.599 463.323L761.599 459.212z"/>
<path class="l5" d="M728.712 434.547L732.823 434.547L732.823 438.657L728.712 438.657L728.712 434.547z"/>
<path class="l5" d="M761.599 409.881L765.71 409.881L765.71 413.992L761.599 413.992L761.599 409.881z"/>
<path class="l5" d="M763.59 436.538L763.718 436.538L763.718 436.666L763.59 436.666L763.59 436.538z"/>
<path class="l5" d="M274.461 434.547L270.35 436.602L274.461 438.657L274.461 434.547"/>
<path class="l5" d="M268.295 459.212L272.405 459.212L272.405 463.323L268.295 463.323L268.295 459.212z"/>
<path class="l5" d="M301.182 434.547L305.292 434.547L305.292 438.657L301.182 438.657L301.182 434.547z"/>
<path class="l5" d="M268.295 409.881L272.405 409.881L272.405 413.992L268.295 413.992L268.295 409.881z"/>
<path class="l5" d="M270.286 436.538L270.414 436.538L270.414 436.666L270.286 436.666L270.286 436.538z"/>
<path class="l5" d="M433.757 410.909L435.812 410.909L435.812 412.965L433.757 412.965L433.757 410.909z"/>
<path class="l5" d="M400.87 542.457L402.926 542.457L402.926 544.512L400.87 544.512L400.87 542.457z"/>
<path class="l5" d="M447.117 500.32L451.228 502.376L447.117 504.431L447.117 500.32"/>
<path class="l5" d="M449.173 524.986L453.284 524.986L453.284 529.097L449.173 529.097L449.173 524.986z"/>
<path class="l5" d="M416.286 500.32L420.397 500.32L420.397 504.431L416.286 504.431L416.286 500.32z"/>
<path class="l5" d="M449.173 475.655L453.284 475.655L453.284 479.766L449.173 479.766L449.173 475.655z"/>
<path class="l5" d="M451.164 502.312L451.292 502.312L451.292 502.44L451.164 502.44L451.164 502.312z"/>
<path class="l5" d="M586.887 500.32L582.776 502.376L586.887 504.431L586.887 500.32"/>
<path class="l5" d="M580.721 524.986L584.831 524.986L584.831 529.097L580.721 529.097L580.721 524.986z"/>
<path class="l5" d="M613.607 500.32L617.718 500.32L617.718 504.431L613.607 504.431L613.607 500.32z"/>
<path class="l5" d="M580.721 475.655L584.831 475.655L584.831 479.766L580.721 479.766L580.721 475.655z"/>
<path class="l5" d="M582.712 502.312L582.84 502.312L582.84 502.44L582.712 502.44L582.712 502.312z"/>
<path class="l5" d="M451.228 648.312L447.117 650.367L451.228 652.423L451.228 648.312"/>
<path class="l5" d="M449.173 623.647L453.284 623.647L453.284 627.757L449.173 627.757L449.173 623.647z"/>
<path class="l5" d="M416.286 648.312L420.397 648.312L420.397 652.423L416.286 652.423L416.286 648.312z"/>
<path class="l5" d="M449.173 672.977L453.284 672.977L453.284 677.088L449.173 677.088L449.173 672.977z"/>
<path class="l5" d="M451.164 650.303L451.292 650.303L451.292 650.431L451.164 650.431L451.164 650.303z"/>
<path class="l5" d="M582.776 648.312L586.887 650.367L582.776 652.423L582.776 648.312"/>
<path class="l5" d="M580.721 623.647L584.831 623.647L584.831 627.757L580.721 627.757L580.721 623.647z"/>
<path class="l5" d="M613.607 648.312L617.718 648.312L617.718 652.423L613.607 652.423L613.607 648.312z"/>
<path class="l5" d="M580.721 672.977L584.831 672.977L584.831 677.088L580.721 677.088L580.721 672.977z"/>
<path class="l5" d="M582.712 650.303L582.84 650.303L582.84 650.431L582.712 650.431L582.712 650.303z"/>
<path class="l5" d="M763.654 648.312L759.543 650.367L763.654 652.423L763.654 648.312"/>
<path class="l5" d="M761.599 623.647L765.71 623.647L765.71 627.757L761.599 627.757L761.599 623.647z"/>
<path class="l5" d="M728.712 648.312L732.823 648.312L732.823 652.423L728.712 652.423L728.712 648.312z"/>
<path class="l5" d="M761.599 672.977L765.71 672.977L765.71 677.088L761.599 677.088L761.599 672.977z"/>
<path class="l5" d="M763.59 650.303L763.718 650.303L763.718 650.431L763.59 650.431L763.59 650.303z"/>
<path class="l5" d="M270.35 648.312L274.461 650.367L270.35 652.423L270.35 648.312"/>
<path class="l5" d="M268.295 623.647L272.405 623.647L272.405 627.757L268.295 627.757L268.295 623.647z"/>
<path class="l5" d="M301.182 648.312L305.292 648.312L305.292 652.423L301.182 652.423L301.182 648.312z"/>
<path class="l5" d="M268.295 672.977L272.405 672.977L272.405 677.088L268.295 677.088L268.295 672.977z"/>
<path class="l5" d="M270.286 650.303L270.414 650.303L270.414 650.431L270.286 650.431L270.286 650.303z"/>
<path class="l5" d="M763.654 566.094L759.543 568.15L763.654 570.205L763.654 566.094"/>
<path class="l5" d="M761.599 541.429L765.71 541.429L765.71 545.54L761.599 545.54L761.599 541.429z"/>
<path class="l5" d="M728.712 566.094L732.823 566.094L732.823 570.205L728.712 570.205L728.712 566.094z"/>
<path class="l5" d="M761.599 590.76L765.71 590.76L765.71 594.87L761.599 594.87L761.599 590.76z"/>
<path class="l5" d="M763.59 568.086L763.718 568.086L763.718 568.214L763.59 568.214L763.59 568.086z"/>
<path class="l5" d="M270.35 566.094L274.461 568.15L270.35 570.205L270.35 566.094"/>
<path class="l5" d="M268.295 541.429L272.405 541.429L272.405 545.54L268.295 545.54L268.295 541.429z"/>
<path class="l5" d="M301.182 566.094L305.292 566.094L305.292 570.205L301.182 570.205L301.182 566.094z"/>
<path class="l5" d="M268.295 590.76L272.405 590.76L272.405 594.87L268.295 594.87L268.295 590.76z"/>
<path class="l5" d="M270.286 568.086L270.414 568.086L270.414 568.214L270.286 568.214L270.286 568.086z"/>
<path class="l5" d="M137.775 328.692L139.83 328.692L139.83 330.747L137.775 330.747L137.775 328.692z"/>
<path class="l5" d="M60.6958 428.38L64.8066 428.38"/>
<path class="l5" d="M60.6958 428.38L57.6126 424.269L50.4186 424.269L53.5017 428.38L50.4186 432.491L57.6126 432.491L60.6958 428.38"/>
<path class="l5" d="M63.7789 427.353L65.8344 427.353L65.8344 429.408L63.7789 429.408L63.7789 427.353z"/>
<path class="l5" d="M60.6958 444.824L64.8066 444.824"/>
<path class="l5" d="M60.6958 444.824L57.6126 440.713L50.4186 440.713L53.5017 444.824L50.4186 448.935L57.6126 448.935L60.6958 444.824"/>
<path class="l5" d="M63.7789 443.796L65.8344 443.796L65.8344 445.851L63.7789 445.851L63.7789 443.796z"/>
<path class="l5" d="M60.6958 411.937L64.8066 411.937"/>
<path class="l5" d="M60.6958 411.937L57.6126 407.826L50.4186 407.826L53.5017 411.937L50.4186 416.048L57.6126 416.048L60.6958 411.937"/>
<path class="l5" d="M63.7789 410.909L65.8344 410.909L65.8344 412.965L63.7789 412.965L63.7789 410.909z"/>
<path class="l5" d="M269.322 394.466L271.378 394.466L271.378 396.521L269.322 396.521L269.322 394.466z"/>
<path class="l5" d="M384.427 353.357L386.482 353.357L386.482 355.412L384.427 355.412L384.427 353.357z"/>
<path class="l5" d="M367.983 649.339L370.039 649.339L370.039 651.395L367.983 651.395L367.983 649.339z"/>
<path class="l5" d="M663.966 649.339L666.021 649.339L666.021 651.395L663.966 651.395L663.966 649.339z"/>
<path class="l5" d="M269.322 608.231L271.378 608.231L271.378 610.286L269.322 610.286L269.322 608.231z"/>
<path class="l5" d="M515.974 336.913L518.03 336.913L518.03 338.969L515.974 338.969L515.974 336.913z"/>
<path class="l5" d="M762.626 394.466L764.682 394.466L764.682 396.521L762.626 396.521L762.626 394.466z"/>
<path class="l5" d="M762.626 608.231L764.682 608.231L764.682 610.286L762.626 610.286L762.626 608.231z"/>
<path class="l1" d="M451.228 527.041L451.228 625.702"/>
<path class="l1" d="M582.776 527.041L582.776 625.702"/>
<path class="l1" d="M582.776 609.258L632.106 609.258"/>
<path class="l1" d="M632.106 609.258L632.106 650.367"/>
<path class="l1" d="M401.898 609.258L401.898 650.367"/>
<path class="l1" d="M401.898 609.258L451.228 609.258"/>
<path class="l1" d="M385.454 231.059L517.002 231.059"/>
<path class="l1" d="M517.002 231.059L517.002 247.502"/>
<path class="l1" d="M385.454 502.376L418.341 502.376"/>
<path class="l1" d="M615.663 502.376L648.55 502.376"/>
<path class="l1" d="M582.776 675.032L582.776 691.476"/>
<path class="l1" d="M451.228 675.032L451.228 691.476"/>
<path class="l1" d="M517.002 231.059L714.324 231.059"/>
<path class="l1" d="M319.68 231.059L385.454 231.059"/>
<path class="l1" d="M517.002 214.615L517.002 231.059"/>
<path class="l1" d="M517.002 691.476L517.002 707.919"/>
<path class="l1" d="M451.228 650.367L467.672 650.367"/>
<path class="l1" d="M467.672 650.367L467.672 691.476"/>
<path class="l1" d="M566.333 650.367L582.776 650.367"/>
<path class="l1" d="M566.333 650.367L566.333 691.476"/>
<path class="l1" d="M566.333 502.376L582.776 502.376"/>
<path class="l1" d="M451.228 502.376L566.333 502.376"/>
<path class="l1" d="M517.002 272.167L533.446 272.167"/>
<path class="l1" d="M533.446 231.059L533.446 272.167"/>
<path class="l1" d="M517.002 296.833L517.002 444.824"/>
<path class="l1" d="M615.663 650.367L730.767 650.367"/>
<path class="l1" d="M763.654 675.032L763.654 691.476"/>
<path class="l1" d="M763.654 592.815L763.654 625.702"/>
<path class="l1" d="M303.237 650.367L418.341 650.367"/>
<path class="l1" d="M270.35 675.032L270.35 691.476"/>
<path class="l1" d="M270.35 691.476L780.098 691.476"/>
<path class="l1" d="M253.907 650.367L270.35 650.367"/>
<path class="l1" d="M253.907 650.367L253.907 691.476"/>
<path class="l1" d="M253.907 691.476L270.35 691.476"/>
<path class="l1" d="M270.35 592.815L270.35 625.702"/>
<path class="l1" d="M303.237 568.15L730.767 568.15"/>
<path class="l1" d="M451.228 461.267L451.228 477.711"/>
<path class="l1" d="M451.228 461.267L582.776 461.267"/>
<path class="l1" d="M582.776 461.267L582.776 477.711"/>
<path class="l1" d="M517.002 444.824L517.002 461.267"/>
<path class="l1" d="M763.654 461.267L763.654 543.485"/>
<path class="l1" d="M270.35 461.267L270.35 543.485"/>
<path class="l1" d="M303.237 436.602L730.767 436.602"/>
<path class="l1" d="M270.35 477.711L319.68 477.711"/>
<path class="l1" d="M319.68 354.385L319.68 477.711"/>
<path class="l1" d="M303.237 354.385L319.68 354.385"/>
<path class="l1" d="M253.907 354.385L270.35 354.385"/>
<path class="l1" d="M270.35 313.276L270.35 329.719"/>
<path class="l1" d="M270.35 231.059L270.35 313.276"/>
<path class="l1" d="M270.35 231.059L319.68 231.059"/>
<path class="l1" d="M714.324 231.059L763.654 231.059"/>
<path class="l1" d="M763.654 231.059L763.654 329.719"/>
<path class="l1" d="M270.35 379.05L270.35 411.937"/>
<path class="l1" d="M763.654 379.05L763.654 411.937"/>
<path class="l1" d="M138.802 296.833L138.802 329.719"/>
<path class="l1" d="M138.802 231.059L138.802 247.502"/>
<path class="l1" d="M138.802 231.059L270.35 231.059"/>
<path class="l1" d="M122.359 272.167L138.802 272.167"/>
<path class="l1" d="M122.359 231.059L122.359 272.167"/>
<path class="l1" d="M122.359 231.059L138.802 231.059"/>
<path class="l1" d="M138.802 313.276L188.133 313.276"/>
<path class="l1" d="M188.133 272.167L188.133 313.276"/>
<path class="l1" d="M171.689 272.167L188.133 272.167"/>
<path class="l1" d="M188.133 272.167L484.115 272.167"/>
<path class="l1" d="M763.654 502.376L796.541 502.376"/>
<path class="l1" d="M319.68 354.385L730.767 354.385"/>
<path class="l1" d="M253.907 436.602L270.35 436.602"/>
<path class="l1" d="M434.785 411.937L434.785 436.602"/>
<path class="l1" d="M401.898 543.485L401.898 568.15"/>
<path class="l1" d="M763.654 650.367L780.098 650.367"/>
<path class="l1" d="M780.098 650.367L780.098 691.476"/>
<path class="l1" d="M253.907 313.276L253.907 354.385"/>
<path class="l1" d="M780.098 313.276L780.098 354.385"/>
<path class="l1" d="M763.654 354.385L780.098 354.385"/>
<path class="l1" d="M533.446 272.167L533.446 502.376"/>
<path class="l1" d="M763.654 568.15L780.098 568.15"/>
<path class="l1" d="M780.098 568.15L780.098 650.367"/>
<path class="l1" d="M253.907 354.385L253.907 436.602"/>
<path class="l1" d="M253.907 231.059L253.907 313.276"/>
<path class="l1" d="M780.098 231.059L780.098 313.276"/>
<path class="l1" d="M763.654 231.059L780.098 231.059"/>
<path class="l1" d="M763.654 436.602L780.098 436.602"/>
<path class="l1" d="M780.098 354.385L780.098 436.602"/>
<path class="l1" d="M253.907 568.15L270.35 568.15"/>
<path class="l1" d="M253.907 568.15L253.907 650.367"/>
<circle class="l1" cx="253.907" cy="231.059" r="3.28869"/>
<circle class="l1" cx="253.907" cy="354.385" r="3.28869"/>
<circle class="l1" cx="253.907" cy="354.385" r="3.28869"/>
<circle class="l1" cx="319.68" cy="354.385" r="3.28869"/>
<circle class="l1" cx="188.133" cy="272.167" r="3.28869"/>
<circle class="l1" cx="188.133" cy="272.167" r="3.28869"/>
<circle class="l1" cx="188.133" cy="272.167" r="3.28869"/>
<circle class="l1" cx="138.802" cy="313.276" r="3.28869"/>
<circle class="l1" cx="138.802" cy="231.059" r="3.28869"/>
<circle class="l1" cx="138.802" cy="231.059" r="3.28869"/>
<circle class="l1" cx="270.35" cy="231.059" r="3.28869"/>
<circle class="l1" cx="138.802" cy="231.059" r="3.28869"/>
<circle class="l1" cx="270.35" cy="231.059" r="3.28869"/>
<circle class="l1" cx="270.35" cy="231.059" r="3.28869"/>
<circle class="l1" cx="253.907" cy="354.385" r="3.28869"/>
<circle class="l1" cx="319.68" cy="354.385" r="3.28869"/>
<circle class="l1" cx="319.68" cy="354.385" r="3.28869"/>
<circle class="l1" cx="270.35" cy="477.711" r="3.28869"/>
<circle class="l1" cx="253.907" cy="650.367" r="3.28869"/>
<circle class="l1" cx="270.35" cy="691.476" r="3.28869"/>
<circle class="l1" cx="253.907" cy="650.367" r="3.28869"/>
<circle class="l1" cx="253.907" cy="650.367" r="3.28869"/>
<circle class="l1" cx="270.35" cy="691.476" r="3.28869"/>
<circle class="l1" cx="270.35" cy="691.476" r="3.28869"/>
<circle class="l1" cx="533.446" cy="272.167" r="3.28869"/>
<circle class="l1" cx="533.446" cy="502.376" r="3.28869"/>
<circle class="l1" cx="434.785" cy="436.602" r="3.28869"/>
<circle class="l1" cx="517.002" cy="461.267" r="3.28869"/>
<circle class="l1" cx="533.446" cy="231.059" r="3.28869"/>
<circle class="l1" cx="533.446" cy="272.167" r="3.28869"/>
<circle class="l1" cx="533.446" cy="272.167" r="3.28869"/>
<circle class="l1" cx="517.002" cy="231.059" r="3.28869"/>
<circle class="l1" cx="517.002" cy="231.059" r="3.28869"/>
<circle class="l1" cx="517.002" cy="231.059" r="3.28869"/>
<circle class="l1" cx="517.002" cy="231.059" r="3.28869"/>
<circle class="l1" cx="401.898" cy="568.15" r="3.28869"/>
<circle class="l1" cx="566.333" cy="691.476" r="3.28869"/>
<circle class="l1" cx="467.672" cy="691.476" r="3.28869"/>
<circle class="l1" cx="517.002" cy="691.476" r="3.28869"/>
<circle class="l1" cx="451.228" cy="691.476" r="3.28869"/>
<circle class="l1" cx="582.776" cy="691.476" r="3.28869"/>
<circle class="l1" cx="451.228" cy="609.258" r="3.28869"/>
<circle class="l1" cx="401.898" cy="650.367" r="3.28869"/>
<circle class="l1" cx="632.106" cy="650.367" r="3.28869"/>
<circle class="l1" cx="582.776" cy="609.258" r="3.28869"/>
<circle class="l1" cx="780.098" cy="354.385" r="3.28869"/>
<circle class="l1" cx="763.654" cy="231.059" r="3.28869"/>
<circle class="l1" cx="780.098" cy="354.385" r="3.28869"/>
<circle class="l1" cx="780.098" cy="354.385" r="3.28869"/>
<circle class="l1" cx="763.654" cy="502.376" r="3.28869"/>
<circle class="l1" cx="763.654" cy="231.059" r="3.28869"/>
<circle class="l1" cx="763.654" cy="231.059" r="3.28869"/>
<circle class="l1" cx="780.098" cy="650.367" r="3.28869"/>
<circle class="l1" cx="780.098" cy="650.367" r="3.28869"/>
<circle class="l1" cx="780.098" cy="650.367" r="3.28869"/>
<circle class="l1" cx="763.654" cy="691.476" r="3.28869"/>
</svg>
